<svg width="24" height="24" viewBox="0 0 24 24" fill="none" xmlns="http://www.w3.org/2000/svg">
    <path d="M6.50007 3C3.46251 3 1.00007 5.46243 1.00007 8.5C1.00007 10.7436 2.16802 12.9144 3.9112 13.3333C4.58361 13.4949 5.1191 14.3578 5.00404 15.3428C4.85003 16.6613 3.65771 17.9934 1.29692 19.0431C0.771277 19.2769 0.991376 20.0676 1.56219 19.9961C7.71476 19.2258 11.9795 15.2148 12 9.53984C12.0001 5.63705 9.69428 3 6.50007 3Z" fill="#FFDD00"/>
    <path d="M18.5001 3C15.4625 3 13.0001 5.46243 13.0001 8.5C13.0001 10.7436 14.168 12.9144 15.9112 13.3333C16.5836 13.4949 17.1191 14.3578 17.004 15.3428C16.85 16.6613 15.6577 17.9934 13.2969 19.0431C12.7713 19.2769 12.9914 20.0676 13.5622 19.9961C19.7148 19.2258 23.9795 15.2148 24 9.53984C24.0001 5.63705 21.6943 3 18.5001 3Z" fill="#FFDD00"/>
</svg>